<svg xmlns="http://www.w3.org/2000/svg" xmlns:xlink="http://www.w3.org/1999/xlink" width="894" zoomAndPan="magnify" viewBox="0 0 670.5 374.999991" height="500" preserveAspectRatio="xMidYMid meet" version="1.0"><defs><clipPath id="cf957b85f4"><path d="M 152.378906 123 L 203.449219 123 L 203.449219 209.425781 L 152.378906 209.425781 Z M 152.378906 123 " clip-rule="nonzero"/></clipPath><clipPath id="cd25c31244"><path d="M 202.164062 148.242188 C 186.265625 148.242188 176.507812 157.84375 176.507812 177.992188 L 176.507812 209.160156 L 152.582031 209.160156 L 152.582031 124.785156 L 176.507812 124.785156 L 176.507812 141.785156 C 181.386719 130.136719 189.257812 122.578125 203.425781 123.214844 L 203.425781 148.242188 Z M 202.164062 148.242188 " clip-rule="nonzero"/></clipPath><clipPath id="d66b4898e3"><path d="M 0.527344 0 L 51.449219 0 L 51.449219 86.265625 L 0.527344 86.265625 Z M 0.527344 0 " clip-rule="nonzero"/></clipPath><clipPath id="d0ac3d27d1"><path d="M 50.164062 25.242188 C 34.265625 25.242188 24.507812 34.84375 24.507812 54.992188 L 24.507812 86.160156 L 0.582031 86.160156 L 0.582031 1.785156 L 24.507812 1.785156 L 24.507812 18.785156 C 29.386719 7.136719 37.257812 -0.421875 51.425781 0.214844 L 51.425781 25.242188 Z M 50.164062 25.242188 " clip-rule="nonzero"/></clipPath><clipPath id="c41f545b72"><rect x="0" width="52" y="0" height="87"/></clipPath><clipPath id="8f0315d516"><path d="M 208.554688 123 L 300.121094 123 L 300.121094 211.25 L 208.554688 211.25 Z M 208.554688 123 " clip-rule="nonzero"/></clipPath><clipPath id="6defb9541d"><path d="M 276.464844 167.125 C 276.464844 154.6875 267.492188 143.828125 254.273438 143.828125 C 240.578125 143.828125 232.394531 154.375 232.394531 166.8125 L 232.394531 167.125 C 232.394531 179.5625 241.367188 190.421875 254.585938 190.421875 C 268.28125 190.421875 276.464844 179.878906 276.464844 167.441406 Z M 254.273438 211.042969 C 228.140625 211.042969 208.78125 191.679688 208.78125 167.441406 L 208.78125 167.125 C 208.78125 142.886719 228.300781 123.207031 254.585938 123.207031 C 280.71875 123.207031 300.078125 142.566406 300.078125 166.8125 L 300.078125 167.125 C 300.078125 191.367188 280.558594 211.042969 254.273438 211.042969 " clip-rule="nonzero"/></clipPath><clipPath id="25e7924046"><path d="M 0.644531 0.167969 L 92.121094 0.167969 L 92.121094 88.183594 L 0.644531 88.183594 Z M 0.644531 0.167969 " clip-rule="nonzero"/></clipPath><clipPath id="df93fa718b"><path d="M 68.464844 44.125 C 68.464844 31.6875 59.492188 20.828125 46.273438 20.828125 C 32.578125 20.828125 24.394531 31.375 24.394531 43.8125 L 24.394531 44.125 C 24.394531 56.5625 33.367188 67.421875 46.585938 67.421875 C 60.28125 67.421875 68.464844 56.878906 68.464844 44.441406 Z M 46.273438 88.042969 C 20.140625 88.042969 0.78125 68.679688 0.78125 44.441406 L 0.78125 44.125 C 0.78125 19.886719 20.300781 0.207031 46.585938 0.207031 C 72.71875 0.207031 92.078125 19.566406 92.078125 43.8125 L 92.078125 44.125 C 92.078125 68.367188 72.558594 88.042969 46.273438 88.042969 " clip-rule="nonzero"/></clipPath><clipPath id="87fdb613ba"><rect x="0" width="93" y="0" height="89"/></clipPath><clipPath id="5d531c1d5d"><path d="M 317.460938 123.191406 L 395.851562 123.191406 L 395.851562 211.078125 L 317.460938 211.078125 Z M 317.460938 123.191406 " clip-rule="nonzero"/></clipPath><clipPath id="4855687617"><path d="M 361.378906 211.03125 C 336.035156 211.03125 317.460938 191.511719 317.460938 167.425781 L 317.460938 167.113281 C 317.460938 143.027344 335.875 123.191406 361.691406 123.191406 C 377.59375 123.191406 387.511719 128.542969 395.378906 137.363281 L 380.738281 153.101562 C 375.386719 147.4375 370.03125 143.816406 361.53125 143.816406 C 349.570312 143.816406 341.070312 154.359375 341.070312 166.796875 L 341.070312 167.113281 C 341.070312 180.015625 349.414062 190.410156 362.476562 190.410156 C 370.507812 190.410156 376.015625 186.945312 381.839844 181.433594 L 395.847656 195.605469 C 387.664062 204.578125 378.214844 211.03125 361.371094 211.03125 " clip-rule="nonzero"/></clipPath><clipPath id="d3e648b760"><path d="M 0.460938 0.191406 L 78.851562 0.191406 L 78.851562 88.078125 L 0.460938 88.078125 Z M 0.460938 0.191406 " clip-rule="nonzero"/></clipPath><clipPath id="2ff5128ddc"><path d="M 44.378906 88.03125 C 19.035156 88.03125 0.460938 68.511719 0.460938 44.425781 L 0.460938 44.113281 C 0.460938 20.027344 18.875 0.191406 44.691406 0.191406 C 60.59375 0.191406 70.511719 5.542969 78.378906 14.363281 L 63.738281 30.101562 C 58.386719 24.4375 53.03125 20.816406 44.53125 20.816406 C 32.570312 20.816406 24.070312 31.359375 24.070312 43.796875 L 24.070312 44.113281 C 24.070312 57.015625 32.414062 67.410156 45.476562 67.410156 C 53.507812 67.410156 59.015625 63.945312 64.839844 58.433594 L 78.847656 72.605469 C 70.664062 81.578125 61.214844 88.03125 44.371094 88.03125 " clip-rule="nonzero"/></clipPath><clipPath id="968dbc9388"><rect x="0" width="79" y="0" height="89"/></clipPath><clipPath id="96de303f26"><path d="M 449.765625 227.414062 L 468.546875 227.414062 L 468.546875 252.285156 L 449.765625 252.285156 Z M 449.765625 227.414062 " clip-rule="nonzero"/></clipPath><clipPath id="5e6ff658a8"><path d="M 465.308594 233.585938 C 464.921875 232.808594 464.414062 232.140625 463.78125 231.589844 C 463.144531 231.039062 462.417969 230.613281 461.601562 230.308594 C 460.785156 230.007812 459.933594 229.863281 459.046875 229.863281 C 458.160156 229.863281 457.328125 230.007812 456.550781 230.292969 C 455.769531 230.582031 455.082031 231 454.496094 231.550781 C 453.914062 232.101562 453.449219 232.769531 453.113281 233.546875 C 452.777344 234.324219 452.609375 235.195312 452.609375 236.15625 C 452.609375 237.117188 452.789062 237.988281 453.136719 238.765625 C 453.484375 239.542969 453.953125 240.214844 454.535156 240.777344 C 455.121094 241.339844 455.804688 241.769531 456.585938 242.074219 C 457.371094 242.378906 458.1875 242.527344 459.054688 242.527344 C 459.941406 242.527344 460.789062 242.378906 461.605469 242.074219 C 462.421875 241.769531 463.144531 241.351562 463.785156 240.792969 C 464.425781 240.238281 464.933594 239.574219 465.3125 238.796875 C 465.695312 238.019531 465.886719 237.148438 465.886719 236.1875 C 465.886719 235.230469 465.695312 234.359375 465.3125 233.582031 M 467.882812 247.125 C 467.4375 248.25 466.800781 249.195312 465.976562 249.949219 C 465.148438 250.707031 464.148438 251.273438 462.992188 251.660156 C 461.832031 252.046875 460.527344 252.234375 459.085938 252.234375 C 457.523438 252.234375 456.042969 252.019531 454.625 251.585938 C 453.207031 251.15625 451.878906 250.507812 450.632812 249.648438 L 451.886719 247.488281 C 452.96875 248.257812 454.09375 248.847656 455.269531 249.253906 C 456.445312 249.664062 457.703125 249.867188 459.046875 249.867188 C 461.109375 249.867188 462.753906 249.308594 463.976562 248.191406 C 465.203125 247.070312 465.816406 245.425781 465.816406 243.242188 L 465.816406 241.054688 C 465 242.132812 464.003906 243.054688 462.832031 243.824219 C 461.65625 244.589844 460.214844 244.96875 458.511719 244.96875 C 457.386719 244.96875 456.300781 244.769531 455.257812 244.375 C 454.214844 243.976562 453.277344 243.410156 452.460938 242.652344 C 451.644531 241.898438 450.996094 240.980469 450.503906 239.902344 C 450.011719 238.820312 449.765625 237.59375 449.765625 236.226562 C 449.765625 234.859375 450.011719 233.636719 450.503906 232.542969 C 450.996094 231.453125 451.644531 230.523438 452.460938 229.769531 C 453.277344 229.015625 454.214844 228.433594 455.269531 228.027344 C 456.324219 227.617188 457.402344 227.414062 458.507812 227.414062 C 459.371094 227.414062 460.167969 227.519531 460.902344 227.71875 C 461.632812 227.917969 462.289062 228.191406 462.878906 228.527344 C 463.472656 228.863281 464 229.261719 464.480469 229.714844 C 464.960938 230.167969 465.390625 230.652344 465.777344 231.152344 L 465.777344 227.8125 L 468.542969 227.8125 L 468.542969 243.171875 C 468.542969 244.683594 468.324219 246 467.878906 247.132812 " clip-rule="nonzero"/></clipPath><clipPath id="5ef6cce9aa"><path d="M 0.765625 0.414062 L 19.546875 0.414062 L 19.546875 25.285156 L 0.765625 25.285156 Z M 0.765625 0.414062 " clip-rule="nonzero"/></clipPath><clipPath id="d3825442e5"><path d="M 16.308594 6.585938 C 15.921875 5.808594 15.414062 5.140625 14.78125 4.589844 C 14.144531 4.039062 13.417969 3.613281 12.601562 3.308594 C 11.785156 3.007812 10.933594 2.863281 10.046875 2.863281 C 9.160156 2.863281 8.328125 3.007812 7.550781 3.292969 C 6.769531 3.582031 6.082031 4 5.496094 4.550781 C 4.914062 5.101562 4.449219 5.769531 4.113281 6.546875 C 3.777344 7.324219 3.609375 8.195312 3.609375 9.15625 C 3.609375 10.117188 3.789062 10.988281 4.136719 11.765625 C 4.484375 12.542969 4.953125 13.214844 5.535156 13.777344 C 6.121094 14.339844 6.804688 14.769531 7.585938 15.074219 C 8.371094 15.378906 9.1875 15.527344 10.054688 15.527344 C 10.941406 15.527344 11.789062 15.378906 12.605469 15.074219 C 13.421875 14.769531 14.144531 14.351562 14.785156 13.792969 C 15.425781 13.238281 15.933594 12.574219 16.3125 11.796875 C 16.695312 11.019531 16.886719 10.148438 16.886719 9.1875 C 16.886719 8.230469 16.695312 7.359375 16.3125 6.582031 M 18.882812 20.125 C 18.4375 21.25 17.800781 22.195312 16.976562 22.949219 C 16.148438 23.707031 15.148438 24.273438 13.992188 24.660156 C 12.832031 25.046875 11.527344 25.234375 10.085938 25.234375 C 8.523438 25.234375 7.042969 25.019531 5.625 24.585938 C 4.207031 24.15625 2.878906 23.507812 1.632812 22.648438 L 2.886719 20.488281 C 3.96875 21.257812 5.09375 21.847656 6.269531 22.253906 C 7.445312 22.664062 8.703125 22.867188 10.046875 22.867188 C 12.109375 22.867188 13.753906 22.308594 14.976562 21.191406 C 16.203125 20.070312 16.816406 18.425781 16.816406 16.242188 L 16.816406 14.054688 C 16 15.132812 15.003906 16.054688 13.832031 16.824219 C 12.65625 17.589844 11.214844 17.96875 9.511719 17.96875 C 8.386719 17.96875 7.300781 17.769531 6.257812 17.375 C 5.214844 16.976562 4.277344 16.410156 3.460938 15.652344 C 2.644531 14.898438 1.996094 13.980469 1.503906 12.902344 C 1.011719 11.820312 0.765625 10.59375 0.765625 9.226562 C 0.765625 7.859375 1.011719 6.636719 1.503906 5.542969 C 1.996094 4.453125 2.644531 3.523438 3.460938 2.769531 C 4.277344 2.015625 5.214844 1.433594 6.269531 1.027344 C 7.324219 0.617188 8.402344 0.414062 9.507812 0.414062 C 10.371094 0.414062 11.167969 0.519531 11.902344 0.71875 C 12.632812 0.917969 13.289062 1.191406 13.878906 1.527344 C 14.472656 1.863281 15 2.261719 15.480469 2.714844 C 15.960938 3.167969 16.390625 3.652344 16.777344 4.152344 L 16.777344 0.8125 L 19.542969 0.8125 L 19.542969 16.171875 C 19.542969 17.683594 19.324219 19 18.878906 20.132812 " clip-rule="nonzero"/></clipPath><clipPath id="af5ee9a039"><rect x="0" width="20" y="0" height="26"/></clipPath><clipPath id="56259e2c12"><path d="M 474.707031 227.484375 L 485.132812 227.484375 L 485.132812 246.484375 L 474.707031 246.484375 Z M 474.707031 227.484375 " clip-rule="nonzero"/></clipPath><clipPath id="690f1fea5d"><path d="M 477.503906 246.414062 L 474.734375 246.414062 L 474.734375 227.8125 L 477.503906 227.8125 L 477.503906 232.671875 C 477.839844 231.902344 478.257812 231.191406 478.761719 230.546875 C 479.261719 229.902344 479.839844 229.34375 480.488281 228.875 C 481.132812 228.40625 481.84375 228.054688 482.609375 227.8125 C 483.378906 227.570312 484.203125 227.464844 485.09375 227.484375 L 485.09375 230.476562 L 484.882812 230.476562 C 483.875 230.476562 482.917969 230.65625 482.019531 231.015625 C 481.121094 231.375 480.332031 231.914062 479.664062 232.636719 C 478.996094 233.359375 478.464844 234.246094 478.082031 235.316406 C 477.703125 236.386719 477.507812 237.617188 477.507812 239.007812 Z M 477.503906 246.414062 " clip-rule="nonzero"/></clipPath><clipPath id="9cc653eeb2"><path d="M 0.707031 0.484375 L 11.132812 0.484375 L 11.132812 19.4375 L 0.707031 19.4375 Z M 0.707031 0.484375 " clip-rule="nonzero"/></clipPath><clipPath id="93ee6f10f6"><path d="M 3.503906 19.414062 L 0.734375 19.414062 L 0.734375 0.8125 L 3.503906 0.8125 L 3.503906 5.671875 C 3.839844 4.902344 4.257812 4.191406 4.761719 3.546875 C 5.261719 2.902344 5.839844 2.34375 6.488281 1.875 C 7.132812 1.40625 7.84375 1.054688 8.609375 0.8125 C 9.378906 0.570312 10.203125 0.464844 11.09375 0.484375 L 11.09375 3.476562 L 10.882812 3.476562 C 9.875 3.476562 8.917969 3.65625 8.019531 4.015625 C 7.121094 4.375 6.332031 4.914062 5.664062 5.636719 C 4.996094 6.359375 4.464844 7.246094 4.082031 8.316406 C 3.703125 9.386719 3.507812 10.617188 3.507812 12.007812 Z M 3.503906 19.414062 " clip-rule="nonzero"/></clipPath><clipPath id="7d74e087e0"><rect x="0" width="12" y="0" height="20"/></clipPath><clipPath id="f3aa52c42f"><path d="M 487.273438 227.386719 L 506.765625 227.386719 L 506.765625 246.875 L 487.273438 246.875 Z M 487.273438 227.386719 " clip-rule="nonzero"/></clipPath><clipPath id="9e6e638da8"><path d="M 503.390625 234.3125 C 503.042969 233.429688 502.558594 232.660156 501.9375 231.996094 C 501.3125 231.335938 500.578125 230.816406 499.742188 230.4375 C 498.902344 230.054688 497.992188 229.863281 497.003906 229.863281 C 495.996094 229.863281 495.074219 230.050781 494.238281 230.421875 C 493.398438 230.789062 492.679688 231.308594 492.097656 231.964844 C 491.511719 232.621094 491.050781 233.386719 490.710938 234.265625 C 490.375 235.140625 490.210938 236.078125 490.210938 237.082031 C 490.210938 238.085938 490.382812 239.035156 490.734375 239.917969 C 491.085938 240.800781 491.5625 241.566406 492.175781 242.21875 C 492.785156 242.867188 493.507812 243.375 494.351562 243.761719 C 495.195312 244.148438 496.105469 244.335938 497.089844 244.335938 C 498.097656 244.335938 499.019531 244.152344 499.855469 243.777344 C 500.695312 243.402344 501.417969 242.902344 502.011719 242.25 C 502.609375 241.601562 503.078125 240.84375 503.414062 239.972656 C 503.75 239.101562 503.917969 238.15625 503.917969 237.15625 C 503.917969 236.152344 503.738281 235.203125 503.390625 234.320312 M 506.015625 240.859375 C 505.527344 242.046875 504.847656 243.089844 503.980469 243.972656 C 503.117188 244.855469 502.089844 245.558594 500.886719 246.078125 C 499.6875 246.597656 498.394531 246.851562 497 246.851562 C 495.605469 246.851562 494.324219 246.589844 493.148438 246.078125 C 491.976562 245.566406 490.957031 244.863281 490.09375 243.988281 C 489.234375 243.109375 488.5625 242.085938 488.082031 240.910156 C 487.601562 239.734375 487.363281 238.488281 487.363281 237.171875 C 487.363281 235.851562 487.601562 234.601562 488.082031 233.410156 C 488.5625 232.21875 489.234375 231.1875 490.09375 230.296875 C 490.957031 229.410156 491.980469 228.710938 493.171875 228.191406 C 494.363281 227.671875 495.664062 227.414062 497.078125 227.414062 C 498.46875 227.414062 499.757812 227.671875 500.945312 228.1875 C 502.128906 228.699219 503.15625 229.398438 504.019531 230.277344 C 504.886719 231.152344 505.554688 232.179688 506.035156 233.355469 C 506.515625 234.527344 506.75 235.777344 506.75 237.097656 C 506.75 238.421875 506.503906 239.667969 506.011719 240.859375 " clip-rule="nonzero"/></clipPath><clipPath id="f4f2c3d9f1"><path d="M 0.316406 0.386719 L 19.765625 0.386719 L 19.765625 19.875 L 0.316406 19.875 Z M 0.316406 0.386719 " clip-rule="nonzero"/></clipPath><clipPath id="0f1ec60e30"><path d="M 16.390625 7.3125 C 16.042969 6.429688 15.558594 5.660156 14.9375 4.996094 C 14.3125 4.335938 13.578125 3.816406 12.742188 3.4375 C 11.902344 3.054688 10.992188 2.863281 10.003906 2.863281 C 8.996094 2.863281 8.074219 3.050781 7.238281 3.421875 C 6.398438 3.789062 5.679688 4.308594 5.097656 4.964844 C 4.511719 5.621094 4.050781 6.386719 3.710938 7.265625 C 3.375 8.140625 3.210938 9.078125 3.210938 10.082031 C 3.210938 11.085938 3.382812 12.035156 3.734375 12.917969 C 4.085938 13.800781 4.5625 14.566406 5.175781 15.21875 C 5.785156 15.867188 6.507812 16.375 7.351562 16.761719 C 8.195312 17.148438 9.105469 17.335938 10.089844 17.335938 C 11.097656 17.335938 12.019531 17.152344 12.855469 16.777344 C 13.695312 16.402344 14.417969 15.902344 15.011719 15.25 C 15.609375 14.601562 16.078125 13.84375 16.414062 12.972656 C 16.75 12.101562 16.917969 11.15625 16.917969 10.15625 C 16.917969 9.152344 16.738281 8.203125 16.390625 7.320312 M 19.015625 13.859375 C 18.527344 15.046875 17.847656 16.089844 16.980469 16.972656 C 16.117188 17.855469 15.089844 18.558594 13.886719 19.078125 C 12.6875 19.597656 11.394531 19.851562 10 19.851562 C 8.605469 19.851562 7.324219 19.589844 6.148438 19.078125 C 4.976562 18.566406 3.957031 17.863281 3.09375 16.988281 C 2.234375 16.109375 1.5625 15.085938 1.082031 13.910156 C 0.601562 12.734375 0.363281 11.488281 0.363281 10.171875 C 0.363281 8.851562 0.601562 7.601562 1.082031 6.410156 C 1.5625 5.21875 2.234375 4.1875 3.09375 3.296875 C 3.957031 2.410156 4.980469 1.710938 6.171875 1.191406 C 7.363281 0.671875 8.664062 0.414062 10.078125 0.414062 C 11.46875 0.414062 12.757812 0.671875 13.945312 1.1875 C 15.128906 1.699219 16.15625 2.398438 17.019531 3.277344 C 17.886719 4.152344 18.554688 5.179688 19.035156 6.355469 C 19.515625 7.527344 19.75 8.777344 19.75 10.097656 C 19.75 11.421875 19.503906 12.667969 19.011719 13.859375 " clip-rule="nonzero"/></clipPath><clipPath id="1418145a90"><rect x="0" width="20" y="0" height="20"/></clipPath><clipPath id="42d0d46bfd"><path d="M 511.441406 227.773438 L 527.714844 227.773438 L 527.714844 246.875 L 511.441406 246.875 Z M 511.441406 227.773438 " clip-rule="nonzero"/></clipPath><clipPath id="d407cdbaff"><path d="M 524.960938 227.8125 L 527.699219 227.8125 L 527.699219 246.414062 L 524.960938 246.414062 L 524.960938 243.171875 C 524.339844 244.179688 523.523438 245.035156 522.515625 245.746094 C 521.503906 246.457031 520.199219 246.804688 518.59375 246.804688 C 517.46875 246.804688 516.464844 246.625 515.585938 246.265625 C 514.710938 245.90625 513.964844 245.394531 513.351562 244.738281 C 512.742188 244.082031 512.273438 243.292969 511.953125 242.382812 C 511.632812 241.472656 511.464844 240.464844 511.464844 239.359375 L 511.464844 227.8125 L 514.234375 227.8125 L 514.234375 238.675781 C 514.234375 240.402344 514.675781 241.769531 515.5625 242.78125 C 516.453125 243.789062 517.722656 244.292969 519.382812 244.292969 C 520.167969 244.292969 520.910156 244.152344 521.59375 243.878906 C 522.277344 243.601562 522.859375 243.203125 523.359375 242.691406 C 523.855469 242.179688 524.238281 241.554688 524.527344 240.839844 C 524.8125 240.121094 524.957031 239.328125 524.957031 238.460938 Z M 524.960938 227.8125 " clip-rule="nonzero"/></clipPath><clipPath id="a2370a9546"><path d="M 0.441406 0.773438 L 16.714844 0.773438 L 16.714844 19.875 L 0.441406 19.875 Z M 0.441406 0.773438 " clip-rule="nonzero"/></clipPath><clipPath id="d394123ae3"><path d="M 13.960938 0.8125 L 16.699219 0.8125 L 16.699219 19.414062 L 13.960938 19.414062 L 13.960938 16.171875 C 13.339844 17.179688 12.523438 18.035156 11.515625 18.746094 C 10.503906 19.457031 9.199219 19.804688 7.59375 19.804688 C 6.46875 19.804688 5.464844 19.625 4.585938 19.265625 C 3.710938 18.90625 2.964844 18.394531 2.351562 17.738281 C 1.742188 17.082031 1.273438 16.292969 0.953125 15.382812 C 0.632812 14.472656 0.464844 13.464844 0.464844 12.359375 L 0.464844 0.8125 L 3.234375 0.8125 L 3.234375 11.675781 C 3.234375 13.402344 3.675781 14.769531 4.5625 15.78125 C 5.453125 16.789062 6.722656 17.292969 8.382812 17.292969 C 9.167969 17.292969 9.910156 17.152344 10.59375 16.878906 C 11.277344 16.601562 11.859375 16.203125 12.359375 15.691406 C 12.855469 15.179688 13.238281 14.554688 13.527344 13.839844 C 13.8125 13.121094 13.957031 12.328125 13.957031 11.460938 Z M 13.960938 0.8125 " clip-rule="nonzero"/></clipPath><clipPath id="ef48e03a93"><rect x="0" width="17" y="0" height="20"/></clipPath><clipPath id="cbef02105a"><path d="M 413.886719 123.191406 L 491.492188 123.191406 L 491.492188 210.195312 L 413.886719 210.195312 Z M 413.886719 123.191406 " clip-rule="nonzero"/></clipPath><clipPath id="d45c48b147"><path d="M 468.824219 174.507812 C 464.734375 172.621094 459.382812 171.359375 453.558594 171.359375 C 443.328125 171.359375 437.03125 175.449219 437.03125 183.007812 L 437.03125 183.320312 C 437.03125 189.773438 442.378906 193.550781 450.097656 193.550781 C 461.269531 193.550781 468.824219 187.414062 468.824219 178.753906 Z M 468.351562 208.507812 L 468.351562 199.382812 C 462.527344 205.835938 454.503906 210.085938 442.847656 210.085938 C 426.953125 210.085938 413.886719 200.953125 413.886719 184.269531 L 413.886719 183.957031 C 413.886719 165.535156 427.898438 157.035156 447.890625 157.035156 C 456.390625 157.035156 462.527344 158.453125 468.511719 160.5 L 468.511719 159.082031 C 468.511719 149.164062 462.375 143.65625 450.410156 143.65625 C 441.28125 143.65625 434.828125 145.386719 427.113281 148.222656 L 421.128906 129.960938 C 430.417969 125.867188 439.546875 123.191406 453.867188 123.191406 C 480 123.191406 491.488281 136.726562 491.488281 159.554688 L 491.488281 208.507812 Z M 468.351562 208.507812 " clip-rule="nonzero"/></clipPath><clipPath id="4808c6bbf9"><path d="M 0.886719 0.191406 L 78.492188 0.191406 L 78.492188 87.195312 L 0.886719 87.195312 Z M 0.886719 0.191406 " clip-rule="nonzero"/></clipPath><clipPath id="cd087a4f03"><path d="M 55.824219 51.507812 C 51.734375 49.621094 46.382812 48.359375 40.558594 48.359375 C 30.328125 48.359375 24.03125 52.449219 24.03125 60.007812 L 24.03125 60.320312 C 24.03125 66.773438 29.378906 70.550781 37.097656 70.550781 C 48.269531 70.550781 55.824219 64.414062 55.824219 55.753906 Z M 55.351562 85.507812 L 55.351562 76.382812 C 49.527344 82.835938 41.503906 87.085938 29.847656 87.085938 C 13.953125 87.085938 0.886719 77.953125 0.886719 61.269531 L 0.886719 60.957031 C 0.886719 42.535156 14.898438 34.035156 34.890625 34.035156 C 43.390625 34.035156 49.527344 35.453125 55.511719 37.5 L 55.511719 36.082031 C 55.511719 26.164062 49.375 20.65625 37.410156 20.65625 C 28.28125 20.65625 21.828125 22.386719 14.113281 25.222656 L 8.128906 6.960938 C 17.417969 2.867188 26.546875 0.191406 40.867188 0.191406 C 67 0.191406 78.488281 13.726562 78.488281 36.554688 L 78.488281 85.507812 Z M 55.351562 85.507812 " clip-rule="nonzero"/></clipPath><clipPath id="798cb9d356"><rect x="0" width="79" y="0" height="88"/></clipPath><clipPath id="35ed858078"><path d="M 533.921875 227.339844 L 552.703125 227.339844 L 552.703125 252.210938 L 533.921875 252.210938 Z M 533.921875 227.339844 " clip-rule="nonzero"/></clipPath><clipPath id="cd1b30f16f"><path d="M 549.335938 234.160156 C 548.988281 233.277344 548.515625 232.515625 547.914062 231.886719 C 547.3125 231.257812 546.617188 230.773438 545.828125 230.4375 C 545.039062 230.101562 544.195312 229.933594 543.308594 229.933594 C 542.449219 229.933594 541.609375 230.105469 540.8125 230.453125 C 540.011719 230.800781 539.289062 231.28125 538.652344 231.902344 C 538.019531 232.527344 537.511719 233.277344 537.144531 234.160156 C 536.773438 235.042969 536.585938 236.019531 536.585938 237.09375 C 536.585938 238.167969 536.773438 239.148438 537.144531 240.050781 C 537.511719 240.949219 538.019531 241.703125 538.652344 242.320312 C 539.289062 242.9375 540.011719 243.425781 540.8125 243.773438 C 541.609375 244.121094 542.449219 244.289062 543.308594 244.289062 C 544.195312 244.289062 545.039062 244.128906 545.847656 243.804688 C 546.652344 243.480469 547.347656 243.015625 547.929688 242.410156 C 548.515625 241.804688 548.984375 241.046875 549.332031 240.152344 C 549.679688 239.261719 549.855469 238.25 549.855469 237.125 C 549.855469 236.027344 549.679688 235.035156 549.332031 234.152344 M 551.941406 241.191406 C 551.4375 242.386719 550.769531 243.402344 549.945312 244.230469 C 549.117188 245.058594 548.167969 245.691406 547.105469 246.136719 C 546.039062 246.585938 544.941406 246.804688 543.8125 246.804688 C 542.949219 246.804688 542.15625 246.695312 541.433594 246.480469 C 540.710938 246.265625 540.066406 245.976562 539.492188 245.613281 C 538.917969 245.25 538.394531 244.835938 537.925781 244.355469 C 537.457031 243.875 537.042969 243.375 536.683594 242.84375 L 536.683594 252.167969 L 533.921875 252.167969 L 533.921875 227.8125 L 536.691406 227.8125 L 536.691406 231.550781 C 537.078125 231 537.5 230.46875 537.96875 229.96875 C 538.4375 229.464844 538.957031 229.023438 539.535156 228.65625 C 540.117188 228.285156 540.75 227.988281 541.460938 227.753906 C 542.171875 227.523438 542.957031 227.414062 543.816406 227.414062 C 544.917969 227.414062 546.007812 227.628906 547.074219 228.066406 C 548.144531 228.5 549.09375 229.125 549.933594 229.949219 C 550.769531 230.777344 551.445312 231.792969 551.945312 232.988281 C 552.449219 234.1875 552.703125 235.554688 552.703125 237.09375 C 552.703125 238.632812 552.449219 239.996094 551.945312 241.195312 " clip-rule="nonzero"/></clipPath><clipPath id="49a7d3be9a"><path d="M 0.921875 0.339844 L 19.703125 0.339844 L 19.703125 25.191406 L 0.921875 25.191406 Z M 0.921875 0.339844 " clip-rule="nonzero"/></clipPath><clipPath id="d4d10c3635"><path d="M 16.335938 7.160156 C 15.988281 6.277344 15.515625 5.515625 14.914062 4.886719 C 14.3125 4.257812 13.617188 3.773438 12.828125 3.4375 C 12.039062 3.101562 11.195312 2.933594 10.308594 2.933594 C 9.449219 2.933594 8.609375 3.105469 7.8125 3.453125 C 7.011719 3.800781 6.289062 4.28125 5.652344 4.902344 C 5.019531 5.527344 4.511719 6.277344 4.144531 7.160156 C 3.773438 8.042969 3.585938 9.019531 3.585938 10.09375 C 3.585938 11.167969 3.773438 12.148438 4.144531 13.050781 C 4.511719 13.949219 5.019531 14.703125 5.652344 15.320312 C 6.289062 15.9375 7.011719 16.425781 7.8125 16.773438 C 8.609375 17.121094 9.449219 17.289062 10.308594 17.289062 C 11.195312 17.289062 12.039062 17.128906 12.847656 16.804688 C 13.652344 16.480469 14.347656 16.015625 14.929688 15.410156 C 15.515625 14.804688 15.984375 14.046875 16.332031 13.152344 C 16.679688 12.261719 16.855469 11.25 16.855469 10.125 C 16.855469 9.027344 16.679688 8.035156 16.332031 7.152344 M 18.941406 14.191406 C 18.4375 15.386719 17.769531 16.402344 16.945312 17.230469 C 16.117188 18.058594 15.167969 18.691406 14.105469 19.136719 C 13.039062 19.585938 11.941406 19.804688 10.8125 19.804688 C 9.949219 19.804688 9.15625 19.695312 8.433594 19.480469 C 7.710938 19.265625 7.066406 18.976562 6.492188 18.613281 C 5.917969 18.25 5.394531 17.835938 4.925781 17.355469 C 4.457031 16.875 4.042969 16.375 3.683594 15.84375 L 3.683594 25.167969 L 0.921875 25.167969 L 0.921875 0.8125 L 3.691406 0.8125 L 3.691406 4.550781 C 4.078125 4 4.5 3.46875 4.96875 2.96875 C 5.4375 2.464844 5.957031 2.023438 6.535156 1.65625 C 7.117188 1.285156 7.75 0.988281 8.460938 0.753906 C 9.171875 0.523438 9.957031 0.414062 10.816406 0.414062 C 11.917969 0.414062 13.007812 0.628906 14.074219 1.066406 C 15.144531 1.5 16.09375 2.125 16.933594 2.949219 C 17.769531 3.777344 18.445312 4.792969 18.945312 5.988281 C 19.449219 7.1875 19.703125 8.554688 19.703125 10.09375 C 19.703125 11.632812 19.449219 12.996094 18.945312 14.195312 " clip-rule="nonzero"/></clipPath><clipPath id="f6d585ea94"><rect x="0" width="20" y="0" height="26"/></clipPath></defs><g clip-path="url(#cf957b85f4)"><g clip-path="url(#cd25c31244)"><g transform="matrix(1, 0, 0, 1, 152, 123)"><g clip-path="url(#c41f545b72)"><g clip-path="url(#d66b4898e3)"><g clip-path="url(#d0ac3d27d1)"><rect x="-299.51" width="965.52" fill="#000000" height="539.999987" y="-205.499998" fill-opacity="1"/></g></g></g></g></g></g><g clip-path="url(#8f0315d516)"><g clip-path="url(#6defb9541d)"><g transform="matrix(1, 0, 0, 1, 208, 123)"><g clip-path="url(#87fdb613ba)"><g clip-path="url(#25e7924046)"><g clip-path="url(#df93fa718b)"><rect x="-355.51" width="965.52" fill="#000000" height="539.999987" y="-205.499998" fill-opacity="1"/></g></g></g></g></g></g><g clip-path="url(#5d531c1d5d)"><g clip-path="url(#4855687617)"><g transform="matrix(1, 0, 0, 1, 317, 123)"><g clip-path="url(#968dbc9388)"><g clip-path="url(#d3e648b760)"><g clip-path="url(#2ff5128ddc)"><path fill="#000000" d="M 0.460938 0.191406 L 78.851562 0.191406 L 78.851562 88.078125 L 0.460938 88.078125 Z M 0.460938 0.191406 " fill-opacity="1" fill-rule="nonzero"/></g></g></g></g></g></g><g clip-path="url(#96de303f26)"><g clip-path="url(#5e6ff658a8)"><g transform="matrix(1, 0, 0, 1, 449, 227)"><g clip-path="url(#af5ee9a039)"><g clip-path="url(#5ef6cce9aa)"><g clip-path="url(#d3825442e5)"><path fill="#d69657" d="M 0.765625 0.414062 L 19.546875 0.414062 L 19.546875 25.210938 L 0.765625 25.210938 Z M 0.765625 0.414062 " fill-opacity="1" fill-rule="nonzero"/></g></g></g></g></g></g><g clip-path="url(#56259e2c12)"><g clip-path="url(#690f1fea5d)"><g transform="matrix(1, 0, 0, 1, 474, 227)"><g clip-path="url(#7d74e087e0)"><g clip-path="url(#9cc653eeb2)"><g clip-path="url(#93ee6f10f6)"><rect x="-621.51" width="965.52" fill="#d69657" height="539.999987" y="-309.499998" fill-opacity="1"/></g></g></g></g></g></g><g clip-path="url(#f3aa52c42f)"><g clip-path="url(#9e6e638da8)"><g transform="matrix(1, 0, 0, 1, 487, 227)"><g clip-path="url(#1418145a90)"><g clip-path="url(#f4f2c3d9f1)"><g clip-path="url(#0f1ec60e30)"><rect x="-634.51" width="965.52" fill="#d69657" height="539.999987" y="-309.499998" fill-opacity="1"/></g></g></g></g></g></g><g clip-path="url(#42d0d46bfd)"><g clip-path="url(#d407cdbaff)"><g transform="matrix(1, 0, 0, 1, 511, 227)"><g clip-path="url(#ef48e03a93)"><g clip-path="url(#a2370a9546)"><g clip-path="url(#d394123ae3)"><rect x="-658.51" width="965.52" fill="#d69657" height="539.999987" y="-309.499998" fill-opacity="1"/></g></g></g></g></g></g><g clip-path="url(#cbef02105a)"><g clip-path="url(#d45c48b147)"><g transform="matrix(1, 0, 0, 1, 413, 123)"><g clip-path="url(#798cb9d356)"><g clip-path="url(#4808c6bbf9)"><g clip-path="url(#cd087a4f03)"><path fill="#000000" d="M 0.886719 0.191406 L 78.492188 0.191406 L 78.492188 87.195312 L 0.886719 87.195312 Z M 0.886719 0.191406 " fill-opacity="1" fill-rule="nonzero"/></g></g></g></g></g></g><g clip-path="url(#35ed858078)"><g clip-path="url(#cd1b30f16f)"><g transform="matrix(1, 0, 0, 1, 533, 227)"><g clip-path="url(#f6d585ea94)"><g clip-path="url(#49a7d3be9a)"><g clip-path="url(#d4d10c3635)"><path fill="#d69657" d="M 0.921875 0.414062 L 19.703125 0.414062 L 19.703125 25.136719 L 0.921875 25.136719 Z M 0.921875 0.414062 " fill-opacity="1" fill-rule="nonzero"/></g></g></g></g></g></g></svg>